<svg width="812" height="1443" viewBox="0 0 812 1443" fill="none" xmlns="http://www.w3.org/2000/svg">
  <path d="M544.502 681L809.5 600C794.963 511.129 722.34 480.871 687.344 477L544.502 681Z"
    fill="url(#paint0_linear_150_5079)" />
  <path
    d="M783 534.5C806.6 564.1 811.5 604.333 811 620.5C808.199 840.1 644.5 949.333 563 976.5L33 1139C6.59997 1095.4 0 1044.83 0 1025C1e-05 882.6 104.333 814.333 156.5 798L546 679C589.667 665.667 690.8 634.8 746 618C801.2 601.2 793.667 555.167 783 534.5Z"
    fill="url(#paint1_linear_150_5079)" />
  <path d="M266.531 458L1.5332 539C16.0698 627.871 88.6932 658.129 123.689 662L266.531 458Z"
    fill="url(#paint2_linear_150_5079)" />
  <path
    d="M28.0332 604.5C4.4332 574.9 -0.466498 534.667 0.0335062 518.5C2.83375 298.9 166.533 189.667 248.033 162.5L778.033 0C804.433 43.6 811.033 94.1667 811.033 114C811.033 256.4 706.7 324.667 654.533 341L265.033 460C221.367 473.333 120.233 504.2 65.0332 521C9.8332 537.8 17.3664 583.833 28.0332 604.5Z"
    fill="url(#paint3_linear_150_5079)" />
  <path d="M154 1289H6V1437H154V1289Z" stroke="black" stroke-width="12" />
  <path
    d="M82.4712 1314.2H43.1592V1415H57.5592V1384.47H82.4712C108.679 1384.47 124.519 1371.22 124.519 1349.34C124.519 1327.45 108.679 1314.2 82.4712 1314.2ZM82.0392 1371.94H57.5592V1326.73H82.0392C100.471 1326.73 110.119 1334.94 110.119 1349.34C110.119 1363.74 100.471 1371.94 82.0392 1371.94Z"
    fill="black" />
  <path
    d="M252.064 1415.72C276.976 1415.72 288.352 1403.34 288.352 1389.08C288.352 1352.5 225.424 1370.36 225.424 1340.12C225.424 1329.03 234.208 1319.96 253.792 1319.96C262.864 1319.96 273.088 1322.7 281.44 1328.46L284.176 1322.55C276.4 1316.94 264.88 1313.48 253.792 1313.48C229.024 1313.48 218.08 1326.01 218.08 1340.26C218.08 1377.42 281.008 1359.27 281.008 1389.51C281.008 1400.46 272.08 1409.24 251.92 1409.24C238.384 1409.24 225.568 1403.77 218.656 1396.57L215.344 1402.04C222.688 1410.1 237.088 1415.72 252.064 1415.72ZM349.462 1314.2H313.318V1415H320.662V1382.02H349.462C374.806 1382.02 390.07 1369.35 390.07 1348.18C390.07 1326.87 374.806 1314.2 349.462 1314.2ZM349.462 1375.4H320.662V1320.82H349.462C371.062 1320.82 382.582 1330.76 382.582 1348.18C382.582 1365.46 371.062 1375.4 349.462 1375.4ZM485.099 1415H493.019L446.651 1314.2H439.307L392.939 1415H400.859L413.675 1386.63H472.139L485.099 1415ZM416.555 1380.44L442.907 1322.26L469.403 1380.44H416.555ZM552.536 1415.72C566.792 1415.72 579.608 1410.97 588.392 1401.61L583.784 1396.86C575.144 1405.35 564.632 1408.95 552.824 1408.95C527.048 1408.95 507.608 1389.94 507.608 1364.6C507.608 1339.26 527.048 1320.25 552.824 1320.25C564.632 1320.25 575.144 1323.7 583.784 1332.2L588.392 1327.45C579.608 1318.09 566.792 1313.48 552.536 1313.48C522.584 1313.48 500.264 1335.22 500.264 1364.6C500.264 1393.98 522.584 1415.72 552.536 1415.72ZM620.334 1408.38V1367.05H674.046V1360.57H620.334V1320.82H680.382V1314.2H612.99V1415H682.542V1408.38H620.334ZM787.654 1415L762.454 1379.72C777.43 1375.26 786.07 1364.17 786.07 1348.18C786.07 1326.87 770.806 1314.2 745.462 1314.2H709.318V1415H716.662V1382.02H745.462C748.918 1382.02 752.086 1381.74 755.254 1381.3L779.302 1415H787.654ZM716.662 1375.54V1320.82H745.462C767.062 1320.82 778.582 1330.76 778.582 1348.18C778.582 1365.46 767.062 1375.54 745.462 1375.54H716.662Z"
    fill="black" />
  <defs>
    <linearGradient id="paint0_linear_150_5079" x1="726.033" y1="385" x2="898.432" y2="587.782"
      gradientUnits="userSpaceOnUse">
      <stop stop-color="#F4F6F7" />
      <stop offset="0.0001" stop-color="#A1CAFF" />
      <stop offset="1" stop-color="#132666" />
    </linearGradient>
    <linearGradient id="paint1_linear_150_5079" x1="139" y1="1745" x2="1247.12" y2="820.643"
      gradientUnits="userSpaceOnUse">
      <stop offset="0.03125" stop-color="#132666" />
      <stop offset="0.588542" stop-color="#6A95CC" />
      <stop offset="1" stop-color="#A1CAFF" />
    </linearGradient>
    <linearGradient id="paint2_linear_150_5079" x1="85" y1="754" x2="-87.3984" y2="551.218"
      gradientUnits="userSpaceOnUse">
      <stop stop-color="#F4F6F7" />
      <stop offset="0.0001" stop-color="#A1CAFF" />
      <stop offset="1" stop-color="#132666" />
    </linearGradient>
    <linearGradient id="paint3_linear_150_5079" x1="672.033" y1="-606" x2="-436.088" y2="318.357"
      gradientUnits="userSpaceOnUse">
      <stop offset="0.03125" stop-color="#132666" />
      <stop offset="0.588542" stop-color="#6A95CC" />
      <stop offset="1" stop-color="#A1CAFF" />
    </linearGradient>
  </defs>
</svg>