<svg width="812" height="1140" viewBox="0 0 812 1140" fill="none" xmlns="http://www.w3.org/2000/svg">
  <path d="M544.502 681L809.5 600C794.963 511.129 722.34 480.871 687.344 477L544.502 681Z" fill="url(#paint0_linear_150_5079)" />
  <path d="M783 534.5C806.6 564.1 811.5 604.333 811 620.5C808.199 840.1 644.5 949.333 563 976.5L33 1139C6.59997 1095.4 0 1044.83 0 1025C1e-05 882.6 104.333 814.333 156.5 798L546 679C589.667 665.667 690.8 634.8 746 618C801.2 601.2 793.667 555.167 783 534.5Z" fill="url(#paint1_linear_150_5079)" />
  <path d="M266.531 458L1.5332 539C16.0698 627.871 88.6932 658.129 123.689 662L266.531 458Z" fill="url(#paint2_linear_150_5079)" />
  <path d="M28.0332 604.5C4.4332 574.9 -0.466498 534.667 0.0335062 518.5C2.83375 298.9 166.533 189.667 248.033 162.5L778.033 0C804.433 43.6 811.033 94.1667 811.033 114C811.033 256.4 706.7 324.667 654.533 341L265.033 460C221.367 473.333 120.233 504.2 65.0332 521C9.8332 537.8 17.3664 583.833 28.0332 604.5Z" fill="url(#paint3_linear_150_5079)" />

  <defs>
    <linearGradient id="paint0_linear_150_5079" x1="726.033" y1="385" x2="898.432" y2="587.782" gradientUnits="userSpaceOnUse">
      <stop stop-color="#F4F6F7" />
      <stop offset="0.0001" stop-color="#A1CAFF" />
      <stop offset="1" stop-color="#132666" />
    </linearGradient>
    <linearGradient id="paint1_linear_150_5079" x1="139" y1="1745" x2="1247.12" y2="820.643" gradientUnits="userSpaceOnUse">
      <stop offset="0.03125" stop-color="#132666" />
      <stop offset="0.588542" stop-color="#6A95CC" />
      <stop offset="1" stop-color="#A1CAFF" />
    </linearGradient>
    <linearGradient id="paint2_linear_150_5079" x1="85" y1="754" x2="-87.3984" y2="551.218" gradientUnits="userSpaceOnUse">
      <stop stop-color="#F4F6F7" />
      <stop offset="0.0001" stop-color="#A1CAFF" />
      <stop offset="1" stop-color="#132666" />
    </linearGradient>
    <linearGradient id="paint3_linear_150_5079" x1="672.033" y1="-606" x2="-436.088" y2="318.357" gradientUnits="userSpaceOnUse">
      <stop offset="0.03125" stop-color="#132666" />
      <stop offset="0.588542" stop-color="#6A95CC" />
      <stop offset="1" stop-color="#A1CAFF" />
    </linearGradient>
  </defs>
</svg>
